<?xml version="1.0" encoding="UTF-8"?>
<svg id="Layer_1" xmlns="http://www.w3.org/2000/svg" version="1.1" viewBox="0 0 408.3 141.4">
  <!-- Generator: Adobe Illustrator 29.8.3, SVG Export Plug-In . SVG Version: 2.1.1 Build 3)  -->
  <defs>
    <style>
      .st0 {
        fill: #fff;
      }

      .st1 {
        fill: #71a679;
      }

      .st2 {
        fill: #44689b;
      }
    </style>
  </defs>
  <g>
    <path class="st0" d="M142.1,80.1l14.2-31.3h6.7l14.5,31.3h-6.7l-4.2-8.5h-10.7l2.1-5h7l-5.5-11.7-11,25.3h-6.4Z"/>
    <path class="st0" d="M204.5,78.8c-2.9,1-6.2,1.5-9.8,1.5-12,0-18.1-5.4-18.1-16.3s6-15.4,18.1-15.4,7,.5,9.8,1.5v5.2c-2.9-1.2-6-1.7-9.4-1.7-8,0-12.1,3.5-12.1,10.4s4,11.3,12.1,11.3,6.5-.6,9.4-1.7v5.2Z"/>
    <path class="st0" d="M233.3,78.8c-2.9,1-6.2,1.5-9.8,1.5-12,0-18.1-5.4-18.1-16.3s6-15.4,18.1-15.4,7,.5,9.8,1.5v5.2c-2.9-1.2-6-1.7-9.4-1.7-8,0-12.1,3.5-12.1,10.4s4,11.3,12.1,11.3,6.5-.6,9.4-1.7v5.2Z"/>
    <path class="st0" d="M235.3,67.8v-19h6.2v19c0,5,2.7,7.5,8.2,7.5s8.2-2.5,8.2-7.5v-19h6.2v19c0,8.3-4.8,12.5-14.4,12.5s-14.4-4.2-14.4-12.5h0Z"/>
    <path class="st0" d="M267.3,80.1v-31.2h15.2c6.8,0,10.3,2.8,10.3,8.4s-2.7,6.9-8,9.4l10.6,13.5h-8.1l-10.2-13.6v-2.6c6.1-.9,9.1-3.1,9.1-6.4s-1.4-3.5-4.2-3.5h-8.5v26.1h-6.3.1Z"/>
    <path class="st0" d="M292.8,80.1l14.2-31.3h6.7l14.5,31.3h-6.7l-4.2-8.5h-10.7l2.1-5h7l-5.5-11.7-11,25.3h-6.4Z"/>
    <path class="st0" d="M347.5,48.9v5h-9.6v26.2h-6.2v-26.2h-9.6v-5h25.4Z"/>
    <path class="st0" d="M371.1,48.9v5h-15.8v7.9h15.1v5.2h-15.1v8.2h16.2v5h-22.3v-31.3h22-.1Z"/>
  </g>
  <g>
    <g>
      <path class="st0" d="M91.1,42.8c9.2,3.8,15.7,12.9,15.7,23.4s-.6,6.3-1.7,9.1c.3.7.6,1.4.9,2.1,1.6-3.4,2.5-7.2,2.5-11.2,0-11.8-7.6-21.9-18.2-25.6.3.6.6,1.3.9,2.1h-.1Z"/>
      <path class="st0" d="M94.3,88.2h0c-3.8,2.1-8.2,3.4-12.8,3.4s-8.9-1.2-12.6-3.4c0,.6,1.3,1.9,2.9,3.2,3,1.2,6.3,1.8,9.8,1.8s7.7-.9,11-2.4c1.7-1.6,1.9-2.6,1.8-2.7h-.1Z"/>
      <path class="st0" d="M57.8,75.5c-1.1-2.9-1.8-6-1.8-9.3,0-10.2,6.1-19,14.8-23-.3-.4-.7-.8-1.2-1.3-9,4.4-15.2,13.6-15.2,24.3s.9,8,2.6,11.5l.9-2.1h-.1Z"/>
    </g>
    <g>
      <path class="st0" d="M59,109.2c-.3.4-.6.7-1,.8-.3,0-.6.1-.9,0-.2,0-.3-.1-.5-.3-.3-.2-.6-.5-.7-.8,0-.3,0-.5,0-.8,0-.3.2-.6.3-.9l.9.5c-.2.4-.3.7-.2.9,0,.2,0,.3.2.4.2.1.4.1.6,0,0,0,.2-.2.3-.3.2-.2.2-.5,0-.9,0-.3-.2-.7-.3-1.2,0-.5,0-.8,0-1.1s0-.6.3-.9c.3-.5.8-.8,1.3-.8s.6,0,1,.3c.3.2.5.4.6.7,0,.2,0,.5,0,.7,0,.3,0,.5-.3.8l-.9-.4c0-.3.2-.5.2-.7s0-.3-.2-.4c-.2-.1-.3-.1-.5,0,0,0-.3.2-.4.4-.2.3-.2.6-.2,1s0,.4,0,.6c0,.3,0,.5.2.6v1.4c0,.3,0,.5-.2.6l.2-.2Z"/>
      <path class="st0" d="M63.1,113.3l2.6-6.3,2.7,1.1-.4,1-1.8-.7-.7,1.7,1.3.5-.4,1-1.3-.5-.7,1.7,1.8.7-.4,1-2.7-1.1h0Z"/>
      <path class="st0" d="M74,109.6c.6.1.9.3,1.1.7.2.3.2.7,0,1.2l-.2,1c0,.5-.3.8-.8,1.1l.2,3.1-1.1-.2v-2.6h-.8c0-.1-.5,2.4-.5,2.4l-1-.2,1.3-6.7,1.6.3h0ZM74.2,111.3c0-.4,0-.6-.5-.7h-.6c0-.1-.4,2-.4,2h.6c.2.1.3.1.4,0,0,0,.2-.2.2-.4l.2-1h.1Z"/>
      <path class="st0" d="M80.9,117.1l-1.3-6.8h1.1l.9,5.3.8-5.3h1.1l-1.2,6.8h-1.4Z"/>
      <path class="st0" d="M90.1,116.2l-1,.2-1.3-6.7,1-.2,1.3,6.7Z"/>
      <path class="st0" d="M97.1,114.3c-.4.2-.8.1-1.2,0-.4-.2-.7-.5-.8-.9l-1.3-3.5c-.2-.4,0-.8,0-1.3.2-.4.5-.7.9-.8.4-.2.8-.1,1.2,0,.4.2.7.5.8.9l.3.7-1,.4-.3-.8c0-.2-.2-.3-.3-.3h-.5c-.2,0-.3.2-.3.3v.5l1.3,3.5c0,.2.2.3.3.3h.4c0,0,.3-.2.3-.3v-.5l-.3-.9,1-.4.3.9c.2.4,0,.8,0,1.3-.2.4-.5.7-.9.8h0Z"/>
      <path class="st0" d="M103.7,111.3l-3.5-5.9,2.5-1.5.5.9-1.6,1,1,1.6,1.2-.7.5.9-1.2.7,1,1.6,1.6-1,.5.9-2.5,1.5h0Z"/>
    </g>
    <g>
      <path class="st0" d="M42.2,78.7l.3,1-6.7,2.1-.3-1,6.7-2.1Z"/>
      <path class="st0" d="M34,73.6l4.5-1.9-4.7.6v-1c0,0,6.8-.8,6.8-.8v1.1c0,0-4.1,1.9-4.1,1.9l4.4-.5v1c0,0-6.8.8-6.8.8v-1.2h-.1Z"/>
      <path class="st0" d="M34.8,64.1v1.1h-1.2l.3-3.2h1.1v1.2l5.9.5v1l-6-.5h0Z"/>
      <path class="st0" d="M41.8,57.9l-6.7-2,.8-2.8,1,.3-.5,1.8,1.8.5.4-1.3,1,.3-.4,1.3,1.8.5.5-1.8,1,.3-.8,2.8h0Z"/>
      <path class="st0" d="M45.1,49.4c-.2.4-.5.7-1,.8-.4,0-.9,0-1.3,0l-3.4-1.7c-.4-.2-.7-.5-.8-1,0-.4,0-.9,0-1.3.2-.4.5-.7,1-.8.4,0,.9,0,1.3,0l.7.4-.5,1-.7-.4h-.5c-.2,0-.3,0-.4.3v.5c0,.2.2.3.3.3l3.4,1.7h.5c.2,0,.3,0,.3-.3v-.5c0-.2,0-.3-.3-.3l-1.2-.6-.3.5-.9-.5.8-1.5,2.2,1.1c.4.2.7.5.8,1,0,.4,0,.8,0,1.2h0Z"/>
      <path class="st0" d="M44,38.3c.4-.5.8-.7,1.2-.7s.7,0,1.1.5l.8.6c.4.3.6.7.6,1.2l2.9,1.3-.7.9-2.4-1.2h0l-.4.5,2,1.6-.6.8-5.4-4.4,1-1.3v.2ZM45.7,38.8c-.3-.3-.6-.2-.8,0l-.4.5,1.7,1.4.4-.5c0,0,0-.3,0-.4s0-.3-.2-.4c0,0-.8-.6-.8-.6Z"/>
      <path class="st0" d="M54.7,37.1l-.8.7-4.6-5.2.8-.7s4.6,5.2,4.6,5.2Z"/>
      <path class="st0" d="M56.3,28.6l-.9.6-.6-.9,2.7-1.7.6.9-.9.6,3.1,5-.9.5s-3.1-5-3.1-5Z"/>
      <path class="st0" d="M65.5,27.3l-2.7-3.3,1.1-.4,1.6,2.1v-2.6c0,0,.9-.4.9-.4v4.3l1.1,2.7-1,.4-1-2.7h0Z"/>
      <path class="st0" d="M89.8,22.1l-1.1-.2.2-1,3.2.6-.2,1-1.1-.2-1.1,5.8-1-.2s1.1-5.8,1.1-5.8Z"/>
      <path class="st0" d="M95.3,29.6l2.6-6.5,2.7,1.1-.4,1-1.8-.7-.7,1.8,1.3.5-.4,1-1.3-.5-.7,1.8,1.8.7-.4,1-2.7-1.1h0Z"/>
      <path class="st0" d="M103.4,33.8c-.4-.2-.6-.6-.7-1,0-.4,0-.9.2-1.2l2.1-3.2c.3-.4.6-.6,1-.7s.9,0,1.2.2c.4.2.6.6.7,1,0,.4,0,.9-.2,1.2l-.4.7-.9-.6.4-.7c0,0,.1-.3,0-.5,0-.2-.1-.3-.3-.4-.1,0-.3,0-.4,0-.2,0-.3,0-.4.3l-2.1,3.2c0,0-.1.3,0,.5,0,.2.1.3.3.4.1,0,.3,0,.4,0s.3,0,.4-.3l.5-.8.9.6-.5.8c-.3.4-.6.6-1,.7-.4,0-.9,0-1.2-.2Z"/>
      <path class="st0" d="M110.7,35.6l-2,2.1-.8-.7,4.8-5.1.8.7-2,2.1.9.9,2-2.1.8.7-4.8,5.1-.8-.7,2-2.1s-.9-.9-.9-.9Z"/>
      <path class="st0" d="M119.9,40l-3.1,3.8,3.9-2.7.6.9-5.7,4-.6-.9,2.9-3.7-3.7,2.5-.6-.9,5.7-4,.7,1h0Z"/>
      <path class="st0" d="M124.9,48.9c.2.4.2.8,0,1.3-.2.4-.5.7-.9.9l-3.5,1.5c-.4.2-.9.2-1.3,0-.4-.2-.7-.5-.9-.9s-.2-.8,0-1.3c.2-.4.5-.7.9-.9l3.5-1.5c.4-.2.9-.2,1.3,0,.4.2.7.5.9.9ZM123.6,50c.2,0,.3-.2.3-.3v-.5c0-.2-.2-.3-.3-.3h-.5l-3.5,1.5c-.2,0-.3.2-.3.3v.5c0,.2.2.3.3.3h.5l3.5-1.5Z"/>
      <path class="st0" d="M121,60.5l-.6-2.8,6.8-1.4.2,1-5.8,1.2.4,1.8-1,.2h0Z"/>
      <path class="st0" d="M128.5,66.7c0,.5-.2.8-.5,1.2-.3.3-.7.5-1.2.5h-3.8c-.5,0-.9,0-1.2-.5-.3-.3-.5-.7-.5-1.2s.2-.8.5-1.2c.3-.3.7-.5,1.2-.5h3.8c.5,0,.9,0,1.2.5.3.3.5.7.5,1.2ZM126.9,67.2c.2,0,.3,0,.4-.2.1,0,.2-.3.2-.4,0-.2,0-.3-.2-.4-.1,0-.3-.2-.4-.2h-3.8c-.2,0-.3,0-.4.2-.1,0-.2.3-.2.4,0,.2,0,.3.2.4.1,0,.3.2.4.2h3.8Z"/>
      <path class="st0" d="M120.6,74.6c0-.4.3-.8.7-1s.8-.3,1.2-.2l3.7.8c.5,0,.8.3,1.1.7.3.4.3.8.2,1.2,0,.4-.3.8-.7,1s-.8.3-1.3.2l-.8-.2.2-1.1.8.2h.5c.1,0,.2-.2.3-.4v-.4c0,0-.2-.2-.4-.3l-3.7-.8h-.5c-.1,0-.2.2-.3.4v.4c0,0,.2.2.4.3l1.3.3v-.6c.1,0,1.2.2,1.2.2l-.3,1.6-2.4-.5c-.5,0-.8-.3-1.1-.7-.3-.4-.3-.8-.2-1.2h.1Z"/>
      <path class="st0" d="M121.2,82.8l4.3.3-.4,1.1-2.6-.3,2,1.7-.4,1.1-3.2-2.9-2.7-1.1.4-1,2.7,1.1h-.1Z"/>
    </g>
    <path class="st0" d="M107.6,84.4c-.2-.4-.4-.8-.6-1.3.2.5.4.9.6,1.3Z"/>
    <path class="st0" d="M104.5,77.3c-.3-.6-.6-1.3-.8-2,.3.7.6,1.3.8,2Z"/>
    <path class="st0" d="M103.2,74.3c-.3-.7-.6-1.4-.9-2.1.3.7.6,1.4.9,2.1Z"/>
    <path class="st0" d="M101.9,71.1c-.5-1.1-.9-2.2-1.4-3.3.5,1.1,1,2.2,1.4,3.3Z"/>
    <path class="st0" d="M100,66.6c-.3-.8-.6-1.5-1-2.3.3.8.7,1.5,1,2.3Z"/>
    <path class="st0" d="M98,62.1c-.3-.8-.7-1.5-1-2.3.3.8.7,1.5,1,2.3Z"/>
    <path class="st0" d="M95.6,56.4c.3.7.6,1.5,1,2.2-.3-.8-.6-1.5-1-2.2s-.6-1.5-.9-2.2c.3.7.6,1.4.9,2.2Z"/>
    <path class="st0" d="M91.3,46.4c.2.6.5,1.2.8,1.8-.3-.6-.5-1.2-.8-1.8-.5-1.1-.9-2.2-1.4-3.1.4.9.9,2,1.4,3.1Z"/>
    <path class="st0" d="M89.1,41.4c.2.4.3.8.5,1.2-.2-.4-.4-.8-.5-1.2-.3-.7-.6-1.3-.8-1.8.2.4.5,1,.8,1.8Z"/>
    <path class="st0" d="M88.2,39.3c0-.2,0-.3-.2-.4,0,0,0,.2.2.4Z"/>
    <g>
      <path class="st2" d="M88.1,63.3l11.7,2c-1.6-3.8-3.3-7.7-4.8-11.3l-6.8,9.3h0Z"/>
      <path class="st2" d="M87.7,96.2h29.6c-1.6-1-6.8-5.8-7.7-8.1,0,0-4.1-9.6-8.7-20.3l-12.7,2.2,6.8,9.4-9.9-6.5-2.5,12.9h12.4l1,2.2c1,2.3-5,7.1-8.1,8.1h-.2Z"/>
      <path class="st2" d="M72,44.5l-4,9.5,10,6.4,3.4-17.6,3.5,17.6,10-6.4c-3.8-8.8-6.8-15.8-6.9-15.8h-23.5c3.1.9,8.5,3.9,7.5,6.3Z"/>
      <polygon class="st2" points="74.8 63.3 68 54 63.2 65.3 74.8 63.3"/>
      <path class="st2" d="M67.3,88.1l1-2.2h12.4l-2.6-13-9.9,6.5,6.8-9.4-12.7-2.2-8.6,20.3c-1,2.3-6.1,7.3-7.7,8.2h30.4c-3.1-1.1-10-5.9-9-8.2h-.1Z"/>
    </g>
    <g>
      <polygon class="st1" points="81.3 30.3 79.9 37.5 82.7 37.5 81.3 30.3"/>
      <polygon class="st1" points="68 51.6 59.4 46.1 66.3 55.5 68 51.6"/>
      <path class="st1" d="M103.3,46.1l-8.4,5.4c.5,1.2,1.1,2.5,1.6,3.8,0,0,6.8-9.2,6.8-9.2Z"/>
      <polygon class="st1" points="56.6 66.6 62.1 65.5 63.2 62.9 41.9 66.6 60.3 69.8 61.2 67.5 56.6 66.6"/>
      <path class="st1" d="M99.8,63c.4.9.7,1.7,1.1,2.5l5.4,1.1-4.6.9c.3.7.6,1.5.9,2.2l18.2-3.1-21.1-3.7h0Z"/>
      <polygon class="st1" points="81.5 90.5 80.8 86.8 78.2 86.8 81.5 103 84.6 86.8 82.3 86.8 81.5 90.5"/>
    </g>
    <polygon class="st1" points="84.2 71 81.5 84.7 78.8 71 72.4 75.2 76.8 69.1 62.2 66.6 76.8 64.1 72.3 58 78.8 62.2 81.4 48.5 84.2 62.2 90.7 58 86.2 64.1 100.8 66.7 86.2 69.1 90.5 75.2 84.2 71"/>
    <polygon class="st0" points="64.4 66.7 81.2 66.9 78.5 68.9 64.4 66.7"/>
    <polygon class="st0" points="81.4 83.3 81.6 66.9 83.8 69.6 81.4 83.3"/>
    <polygon class="st0" points="81.6 49.8 81.4 66.2 79.3 63.5 81.6 49.8"/>
    <polygon class="st0" points="99.2 66.7 81.8 66.6 84.6 64.5 99.2 66.7"/>
  </g>
  <g>
    <path class="st0" d="M194.5,100.5c0,.8-.2,1.5-.5,2-.2.4-.6.6-1,.8-.2,0-.5.1-.8.1-.6,0-1.1-.2-1.4-.5-.3-.3-.6-.6-.8-1.1s-.3-1-.3-1.6h1.4c0,.5.2,1,.5,1.3.2.2.4.3.6.3.3,0,.6-.2.8-.6,0-.2.1-.4.1-.8s-.2-.9-.6-1.4c-.3-.3-.7-.8-1.3-1.4-.5-.6-.8-1-1-1.5s-.3-1-.3-1.6c0-1,.3-1.8.9-2.4.4-.3.8-.5,1.4-.5s1,0,1.4.4c.3.2.5.5.7.9s.3.8.3,1.3l-1.4.3c0-.5-.2-.8-.3-1.1-.1-.2-.3-.3-.6-.3s-.5,0-.6.4c-.1.2-.2.5-.2.8,0,.5.2,1,.6,1.6.1.2.4.4.7.7.3.3.6.6.7.7.4.4.6.8.8,1.3,0,.2.2.4.2.5.1.4.2.8.2,1.1l-.2.3Z"/>
    <path class="st0" d="M202.5,103.4c-.7,0-1.2-.3-1.7-.8s-.7-1.2-.7-1.9v-8.8h1.4v8.8c0,.3,0,.5.3.7s.4.3.6.3.4,0,.6-.3.2-.4.2-.7v-8.8h1.5v8.8c0,.8-.2,1.4-.7,1.9s-1,.8-1.7.8h.2Z"/>
    <path class="st0" d="M212.9,91.9c.8,0,1.4.3,1.8.8.3.5.5,1.1.5,1.9v1.7c0,.8-.3,1.5-.8,2l1.1,5h-1.6l-.9-4.3h-1v4.3h-1.5v-11.4h2.4ZM213.8,94.7c0-.7-.3-1-.8-1h-.9v3.6h.9c.2,0,.4,0,.6-.3.2-.2.2-.4.2-.7v-1.7h0Z"/>
    <path class="st0" d="M222.3,103.3l-1.8-11.4h1.6l1.2,8.9,1.2-8.9h1.6l-1.8,11.4h-2Z"/>
    <path class="st0" d="M231.8,103.3v-11.4h4.2v1.7h-2.7v3.1h2v1.7h-2v3.1h2.7v1.7h-4.2Z"/>
    <path class="st0" d="M243.4,98.5l-2-6.6h1.6l1.1,4.1,1.1-4.1h1.6l-2,6.6v4.8h-1.5v-4.8h0Z"/>
    <path class="st0" d="M253.9,103.3h-1.5v-11.4h1.5v11.4Z"/>
    <path class="st0" d="M261.3,91.9l2,7.6v-7.6h1.5v11.4h-1.6l-2-7.3v7.3h-1.5v-11.4h1.7-.1Z"/>
    <path class="st0" d="M272.8,103.4c-.7,0-1.2-.3-1.7-.8s-.7-1.2-.7-1.9v-6.2c0-.8.2-1.4.7-1.9s1-.8,1.7-.8,1.2.3,1.7.8.7,1.2.7,1.9v1.3h-1.5v-1.3c0-.3,0-.5-.3-.7-.2-.2-.4-.3-.6-.3s-.4,0-.6.3c-.2.2-.2.4-.2.7v6.2c0,.3,0,.5.2.7s.4.3.6.3.4,0,.6-.3c.2-.2.3-.4.3-.7v-2.2h-.8v-1.7h2.4v4c0,.8-.2,1.4-.7,1.9s-1,.8-1.7.8h-.1Z"/>
    <path class="st0" d="M292.3,97.9c-.2,1.2-.6,2.2-1,3.1.4.4.7.6,1,.6v1.6c-.6,0-1.2-.3-1.8-.9-.6.7-1.2,1.1-1.9,1.1s-1.4-.4-1.8-1.1c-.3-.5-.4-1-.4-1.6s.1-1.2.4-1.8c0,0,.2-.4.4-.8.1-.2.3-.5.4-.7l-.3-.8c-.1-.4-.2-.6-.3-.8-.1-.3-.2-.6-.2-.8v-.8c0-.5,0-1,.3-1.4.2-.4.5-.8.9-1,.3-.2.6-.3,1-.3s.8,0,1.1.3c.3.2.6.6.8,1,.1.3.2.7.2,1.1,0,.7-.2,1.3-.6,1.9l-.3.5c-.3.4-.6.9-.8,1.2.3.8.7,1.5,1.1,2.2.2-.6.4-1.3.6-2.1l1.3.3h-.1ZM288.6,101.8c.3,0,.6-.2.9-.7-.4-.6-.8-1.3-1.2-2.2,0,.2-.2.4-.3.6-.2.4-.2.8-.2,1.2s0,.6.2.8c.1.2.3.4.6.4h0ZM288.1,94.1c0,.3.2.9.5,1.8,0,0,.1-.2.2-.3l.2-.3.3-.5c.2-.4.3-.7.3-1v-.5c-.1-.4-.3-.6-.6-.6s-.5.2-.6.5-.2.5-.2.9h0Z"/>
    <path class="st0" d="M305.3,103.3h-1.5v-11.4h2.1l1.4,8.2,1.3-8.2h2v11.4h-1.5v-7.1l-1.3,7.1h-1.2l-1.4-7.1v7.1h.1Z"/>
    <path class="st0" d="M318.2,100.7l-.4,2.6h-1.5l1.7-11.4h2l1.6,11.4h-1.6l-.3-2.6h-1.5ZM319,94.5l-.5,4.5h1.1l-.5-4.5h-.1Z"/>
    <path class="st0" d="M329.7,91.9c.7,0,1.3.3,1.7.8.4.5.6,1.1.6,1.9v1.7c0,.7-.2,1.4-.7,1.9s-1,.8-1.6.8h-.9v4.3h-1.5v-11.4h2.4ZM330.6,94.7c0-.3,0-.5-.2-.7s-.4-.3-.6-.3h-.9v3.6h.9c.2,0,.4,0,.6-.3.2-.2.2-.4.2-.7v-1.7h0Z"/>
    <path class="st0" d="M339.9,91.9c.7,0,1.3.3,1.7.8.4.5.6,1.1.6,1.9v1.7c0,.7-.2,1.4-.7,1.9s-1,.8-1.6.8h-.9v4.3h-1.5v-11.4h2.4ZM340.8,94.7c0-.3,0-.5-.2-.7s-.4-.3-.6-.3h-.9v3.6h.9c.2,0,.4,0,.6-.3.2-.2.2-.4.2-.7v-1.7h0Z"/>
    <path class="st0" d="M349.3,103.3h-1.5v-11.4h1.5v11.4Z"/>
    <path class="st0" d="M356.7,91.9l2,7.6v-7.6h1.5v11.4h-1.6l-2-7.3v7.3h-1.5v-11.4h1.7-.1Z"/>
    <path class="st0" d="M368.2,103.4c-.7,0-1.2-.3-1.7-.8s-.7-1.2-.7-1.9v-6.2c0-.8.2-1.4.7-1.9s1-.8,1.7-.8,1.2.3,1.7.8.7,1.2.7,1.9v1.3h-1.5v-1.3c0-.3,0-.5-.3-.7-.2-.2-.4-.3-.6-.3s-.4,0-.6.3c-.2.2-.2.4-.2.7v6.2c0,.3,0,.5.2.7s.4.3.6.3.4,0,.6-.3c.2-.2.3-.4.3-.7v-2.2h-.8v-1.7h2.4v4c0,.8-.2,1.4-.7,1.9s-1,.8-1.7.8h-.1Z"/>
  </g>
</svg>