<?xml version="1.0" encoding="UTF-8"?>
<svg id="Layer_2" data-name="Layer 2" xmlns="http://www.w3.org/2000/svg" viewBox="0 0 16.49 16.47">
  <defs>
    <style>
      .cls-1 {
        fill: #42679a;
      }

      .cls-2 {
        fill: #fff;
      }
    </style>
  </defs>
  <g id="Layer_1-2" data-name="Layer 1">
    <g>
      <path class="cls-2" d="M16.48,8.23c0,4.55-3.69,8.24-8.24,8.24S0,12.78,0,8.23,3.7,0,8.25,0s8.24,3.69,8.24,8.23h0Z"/>
      <path class="cls-1" d="M8.26,4.5c1.27,0,1.42,0,1.92.03.46.02.71.1.88.16.22.09.38.19.55.36.17.17.27.32.36.55.06.17.14.42.16.88.03.5.03.65.03,1.92s0,1.42-.03,1.92c-.02.46-.1.71-.16.88-.09.22-.19.38-.36.55-.17.17-.32.27-.55.36-.17.06-.42.14-.88.16-.5.03-.65.03-1.92.03s-1.42,0-1.92-.03c-.46-.02-.71-.1-.88-.16-.22-.09-.38-.19-.55-.36-.17-.17-.27-.32-.36-.55-.06-.17-.14-.42-.16-.88-.03-.5-.03-.65-.03-1.92s0-1.42.03-1.92c.02-.46.1-.71.16-.88.09-.22.19-.38.36-.55.17-.17.32-.27.55-.36.17-.06.42-.14.88-.16.5-.03.65-.03,1.92-.03M8.26,3.65c-1.3,0-1.46,0-1.97.03s-.85.11-1.15.22c-.31.13-.58.29-.84.55-.27.27-.43.53-.55.84-.12.3-.2.65-.22,1.15-.03.51-.03.67-.03,1.97s0,1.46.03,1.97.11.85.22,1.15c.13.31.29.58.55.84.27.27.53.43.84.55.3.12.65.2,1.15.22.51.03.67.03,1.97.03s1.46,0,1.97-.03.85-.11,1.15-.22c.31-.13.58-.29.84-.55.27-.27.43-.53.55-.84.12-.3.2-.65.22-1.15.03-.51.03-.67.03-1.97s0-1.46-.03-1.97c-.03-.51-.11-.85-.22-1.15-.13-.31-.29-.58-.55-.84-.27-.27-.53-.43-.84-.55-.3-.12-.65-.2-1.15-.22-.51-.03-.67-.03-1.97-.03"/>
      <path class="cls-1" d="M8.26,5.96c-1.35,0-2.45,1.09-2.45,2.45s1.09,2.45,2.45,2.45,2.45-1.09,2.45-2.45-1.09-2.45-2.45-2.45M8.26,9.99c-.88,0-1.59-.71-1.59-1.59s.71-1.59,1.59-1.59,1.59.71,1.59,1.59-.71,1.59-1.59,1.59"/>
      <path class="cls-1" d="M11.37,5.86c0,.31-.26.57-.57.57s-.57-.26-.57-.57.26-.57.57-.57.57.26.57.57"/>
    </g>
  </g>
</svg>