<?xml version="1.0" encoding="UTF-8"?>
<svg id="Layer_2" data-name="Layer 2" xmlns="http://www.w3.org/2000/svg" viewBox="0 0 16.44 16.44">
  <defs>
    <style>
      .cls-1 {
        fill: #42679a;
      }

      .cls-2 {
        fill: #fff;
      }
    </style>
  </defs>
  <g id="Layer_1-2" data-name="Layer 1">
    <g>
      <path class="cls-2" d="M16.44,8.22c0,4.54-3.68,8.22-8.22,8.22S0,12.76,0,8.22,3.68,0,8.22,0s8.22,3.68,8.22,8.22Z"/>
      <rect class="cls-1" x="4.67" y="6.6" width="1.7" height="5.27"/>
      <path class="cls-1" d="M5.51,5.92c.55,0,1-.44,1-.97s-.45-.97-1-.97-1,.44-1,.97.45.97,1,.97Z"/>
      <path class="cls-1" d="M9.07,9.11c0-.74.36-1.18,1.04-1.18.63,0,.92.42.92,1.18v2.77h1.69v-3.33c0-1.41-.83-2.09-1.99-2.09s-1.65.87-1.65.87v-.71h-1.63v5.27h1.63v-2.77h0Z"/>
    </g>
  </g>
</svg>