<?xml version="1.0" encoding="UTF-8"?>
<svg id="Layer_2" data-name="Layer 2" xmlns="http://www.w3.org/2000/svg" viewBox="0 0 206.16 193.69">
  <defs>
    <style>
      .cls-1 {
        fill: #727272;
        opacity: .1;
      }
    </style>
  </defs>
  <g id="Layer_1-2" data-name="Layer 1">
    <path class="cls-1" d="M206.16,97.05l-77.95-13.63,23.89-32.39-34.73,22.21L102.85,0l-14.12,73.23-34.72-22.21,23.89,32.39L0,96.71l77.89,13.64-23.31,32.45,34.15-22.26,14.55,73.16,14.1-73.15,34.16,22.27-23.33-32.46,77.96-13.3ZM87.01,108.98l-75.47-11.69,90.17.93-14.7,10.77ZM91.32,80.35L103.81,6.83l-1.04,87.84-11.45-14.32ZM102.79,186.08l1.04-87.84,11.45,14.32-12.49,73.52ZM104.62,96.51l15.23-10.76,78.22,11.74-93.44-.98Z"/>
  </g>
</svg>